<?xml version="1.0" standalone="no"?>
<!DOCTYPE svg PUBLIC "-//W3C//DTD SVG 20010904//EN"
 "http://www.w3.org/TR/2001/REC-SVG-20010904/DTD/svg10.dtd">
<svg version="1.0" xmlns="http://www.w3.org/2000/svg"
 width="800.000000pt" height="800.000000pt" viewBox="0 0 800.000000 800.000000"
 preserveAspectRatio="xMidYMid meet">
<metadata>
Created by potrace 1.14, written by Peter Selinger 2001-2017
</metadata>
<g transform="translate(0.000000,800.000000) scale(0.100000,-0.100000)"
fill="#000000" stroke="none">
<path d="M3800 6440 c-582 -81 -1102 -485 -1415 -1100 -112 -222 -189 -435
-241 -668 l-19 -84 -61 -43 c-258 -184 -504 -645 -504 -942 0 -89 14 -137 54
-180 78 -86 218 -42 382 121 l92 91 17 -115 c83 -560 345 -1101 706 -1461 47
-47 114 -108 148 -134 l63 -49 -104 -22 c-234 -49 -353 -134 -334 -238 14 -76
146 -151 336 -192 121 -26 439 -26 560 0 105 22 225 68 265 100 30 24 31 24
200 19 155 -6 173 -8 205 -29 49 -32 149 -68 250 -90 121 -26 439 -26 560 0
130 28 232 71 287 120 45 41 48 47 48 94 0 45 -4 55 -35 87 -41 43 -129 87
-220 110 -36 10 -71 19 -78 21 -8 2 21 31 64 65 282 225 529 572 688 967 69
171 137 417 166 600 l12 72 40 -32 c155 -127 274 -167 353 -118 54 34 70 79
69 200 0 93 -5 117 -37 212 -70 206 -195 412 -347 570 -82 85 -89 97 -96 143
-18 134 -94 403 -160 567 -283 704 -800 1187 -1412 1319 -110 23 -392 34 -502
19z m-155 -705 c84 -23 210 -86 275 -137 l54 -44 66 50 c126 96 261 144 430
153 583 32 996 -562 765 -1101 l-34 -78 54 -89 c167 -277 207 -649 119 -1099
-30 -151 -83 -340 -130 -464 -19 -50 -51 -136 -70 -191 -117 -330 -330 -577
-625 -725 -537 -268 -1179 -113 -1541 374 -86 116 -228 417 -301 641 -184 560
-166 1044 52 1400 l43 70 -21 35 c-39 63 -89 174 -106 235 -26 96 -31 256 -11
355 64 314 302 555 616 625 82 19 281 13 365 -10z"/>
<path d="M3409 5153 c-76 -39 -114 -102 -114 -188 0 -86 38 -149 114 -187 67
-35 119 -36 186 -4 59 27 77 46 104 106 27 59 26 114 -3 175 -27 59 -46 77
-106 104 -62 28 -116 27 -181 -6z"/>
<path d="M4349 5153 c-76 -39 -114 -102 -114 -188 0 -86 38 -149 114 -187 67
-35 119 -36 186 -4 59 27 77 46 104 106 27 59 26 114 -3 175 -27 59 -46 77
-106 104 -62 28 -116 27 -181 -6z"/>
</g>
</svg>
